# xmcd
#
# Track frame offsets:
#	150
#	23635
#	51589
#	78785
#	94973
#	123687
#	155878
#	193530
#	230045
#	265098
#	279880
#	298688
#	308517
#	320748
#	327103
#
# Disc length: 4693 seconds
#
# Revision: 2
# Processed by: cddbd v1.5.2PL0 Copyright (c) Steve Scherf et al.
# Submitted via: EZCDAudioConverter 2.6.0.1
#
DISCID=d612530f
DTITLE=DiDonato Joyce - ReJoyce - Best Of
DYEAR=2013
DGENRE=Opera
TTITLE0=Amour, viens rendre à mon âme
TTITLE1=In quali eccessi, o Numi
TTITLE2=Una voce poco fa
TTITLE3=Giusto ciel, in tal periglio
TTITLE4=Quis est homo
TTITLE5=La tremenda ultrice spada
TTITLE6=Tanti affetti in tal momento
TTITLE7=D'amour l'ardente flamme
TTITLE8=Nacqui all'affanno
TTITLE9=Seien wir wieder gut!
TTITLE10=Who will talk with me?
TTITLE11=You'll never walk alone
TTITLE12=Climb ev'ry mountain
TTITLE13=He will gather us around
TTITLE14=(Somewhere) Over the rainbow
EXTD=
EXTT0=
EXTT1=
EXTT2=
EXTT3=
EXTT4=
EXTT5=
EXTT6=
EXTT7=
EXTT8=
EXTT9=
EXTT10=
EXTT11=
EXTT12=
EXTT13=
EXTT14=
PLAYORDER=
